<?xml version="1.0" encoding="utf-8"?>
<!-- Generator: Adobe Illustrator 24.2.3, SVG Export Plug-In . SVG Version: 6.00 Build 0)  -->
<svg version="1.1" id="Layer_1" xmlns="http://www.w3.org/2000/svg" xmlns:xlink="http://www.w3.org/1999/xlink" x="0px" y="0px"
	 viewBox="0 0 590.9 167.9" style="enable-background:new 0 0 590.9 167.9;" xml:space="preserve">
<style type="text/css">
	.st0{fill:#5F6368;}
	.st1{fill:#FFC107;}
	.st2{fill:#FFECB3;}
</style>
<g>
	<g>
		<path class="st0" d="M250.8,122.7h-10.7v-83h13l40.4,64.6h0.5l-0.5-16V39.7h10.7v83.1h-11.1L250.8,55h-0.5l0.5,16V122.7z"/>
		<path class="st0" d="M315.8,94.3c0-8.7,2.7-16,8.2-21.7c5.6-5.7,12.6-8.6,21-8.6s15.4,2.9,20.9,8.6c5.6,5.7,8.4,13,8.4,21.7
			c0,8.8-2.8,16-8.4,21.7c-5.5,5.7-12.5,8.6-20.9,8.6s-15.4-2.9-21-8.6C318.6,110.3,315.8,103,315.8,94.3z M326.5,94.3
			c0,6.1,1.8,11.1,5.3,14.9c3.6,3.8,8,5.7,13.2,5.7s9.7-1.9,13.2-5.7c3.6-3.8,5.3-8.7,5.3-14.9c0-6-1.8-10.9-5.3-14.7
			c-3.6-3.9-8-5.8-13.2-5.8s-9.6,1.9-13.2,5.8C328.3,83.4,326.5,88.3,326.5,94.3z"/>
		<path class="st0" d="M404.8,123.6c-4.6,0-8.5-1.4-11.5-4.3c-3.1-2.9-4.6-6.8-4.7-11.9V75.6h-10v-9.7h10V48.5h10.7v17.4h13.9v9.7
			h-13.9v28.3c0,3.8,0.7,6.4,2.2,7.7c1.5,1.4,3.1,2,5,2c0.8,0,1.7-0.1,2.5-0.3c0.8-0.2,1.6-0.4,2.3-0.8l3.4,9.5
			C411.8,123.1,408.5,123.6,404.8,123.6z"/>
		<path class="st0" d="M437.7,46.3c0,2.1-0.7,3.9-2.2,5.3c-1.5,1.5-3.2,2.2-5.3,2.2c-2.1,0-3.9-0.7-5.3-2.2
			c-1.5-1.5-2.2-3.2-2.2-5.3s0.7-3.9,2.2-5.3c1.5-1.5,3.2-2.2,5.3-2.2c2.1,0,3.9,0.7,5.3,2.2C437,42.4,437.7,44.2,437.7,46.3z
			 M435.5,65.9v56.8h-10.7V65.9H435.5z"/>
		<path class="st0" d="M471.4,123.6c-4.6,0-8.5-1.4-11.5-4.3c-3.1-2.9-4.6-6.8-4.7-11.9V75.6h-10v-9.7h10V48.5h10.7v17.4h13.9v9.7
			h-13.9v28.3c0,3.8,0.7,6.4,2.2,7.7c1.5,1.4,3.1,2,5,2c0.8,0,1.7-0.1,2.5-0.3c0.8-0.2,1.6-0.4,2.3-0.8l3.4,9.5
			C478.3,123.1,475.1,123.6,471.4,123.6z"/>
		<path class="st0" d="M510.4,64c7.9,0,14.1,2.1,18.7,6.3c4.6,4.2,6.8,10,6.8,17.3v35h-10.2v-7.9h-0.5c-4.4,6.5-10.3,9.7-17.6,9.7
			c-6.3,0-11.5-1.9-15.7-5.6s-6.3-8.4-6.3-13.9c0-5.9,2.2-10.6,6.7-14c4.4-3.5,10.4-5.2,17.8-5.2c6.3,0,11.6,1.2,15.7,3.5v-2.4
			c0-3.7-1.5-6.9-4.4-9.5s-6.4-3.9-10.3-3.9c-6,0-10.7,2.5-14.2,7.5l-9.4-5.9C492.6,67.7,500.2,64,510.4,64z M496.6,105.3
			c0,2.8,1.2,5.1,3.5,7c2.4,1.9,5.1,2.8,8.3,2.8c4.5,0,8.5-1.7,12-5s5.3-7.2,5.3-11.7c-3.3-2.6-8-3.9-13.9-3.9
			c-4.3,0-7.9,1-10.8,3.1C498,99.6,496.6,102.2,496.6,105.3z"/>
		<path class="st0" d="M590.9,106.9c0,4.9-2.2,9.1-6.5,12.5s-9.8,5.1-16.4,5.1c-5.7,0-10.8-1.5-15.1-4.5s-7.4-6.9-9.3-11.8l9.5-4.1
			c1.4,3.4,3.4,6.1,6.1,7.9c2.7,1.9,5.6,2.8,8.8,2.8c3.4,0,6.2-0.7,8.5-2.2s3.4-3.2,3.4-5.2c0-3.6-2.8-6.3-8.4-8l-9.7-2.4
			c-11.1-2.8-16.6-8.1-16.6-16c0-5.2,2.1-9.3,6.3-12.5c4.2-3.1,9.6-4.7,16.2-4.7c5,0,9.6,1.2,13.6,3.6c4.1,2.4,6.9,5.6,8.5,9.6
			l-9.5,3.9c-1.1-2.4-2.8-4.3-5.3-5.6s-5.2-2-8.2-2c-2.8,0-5.3,0.7-7.5,2.1s-3.3,3.1-3.3,5.1c0,3.3,3.1,5.6,9.2,7l8.6,2.2
			C585.2,92.7,590.9,98.4,590.9,106.9z"/>
	</g>
	<g>
		<path class="st1" d="M14,167.9h107.3l46.6-46.6V14c0-7.7-6.3-14-14-14H14C6.3,0,0,6.3,0,14v139.9C0,161.6,6.3,167.9,14,167.9
			L14,167.9z"/>
		<path class="st2" d="M121.2,167.9v-46.6h46.6L121.2,167.9z"/>
		<g>
			<g>
				<defs>
					<rect id="SVGID_1_" width="167.9" height="167.9"/>
				</defs>
				<clipPath id="SVGID_2_">
					<use xlink:href="#SVGID_1_"  style="overflow:visible;"/>
				</clipPath>
			</g>
		</g>
	</g>
</g>
</svg>
